<?xml version="1.0" encoding="UTF-8" standalone="no"?>
<!-- Created with Inkscape (http://www.inkscape.org/) -->

<svg
   version="1.1"
   id="svg1"
   width="1200"
   height="1200"
   viewBox="0 0 1200 1200"
   sodipodi:docname="TubetopAmps.bmp"
   xmlns:inkscape="http://www.inkscape.org/namespaces/inkscape"
   xmlns:sodipodi="http://sodipodi.sourceforge.net/DTD/sodipodi-0.dtd"
   xmlns="http://www.w3.org/2000/svg"
   xmlns:svg="http://www.w3.org/2000/svg">
  <defs
     id="defs1" />
  <sodipodi:namedview
     id="namedview1"
     pagecolor="#ffffff"
     bordercolor="#000000"
     borderopacity="0.25"
     inkscape:showpageshadow="2"
     inkscape:pageopacity="0.0"
     inkscape:pagecheckerboard="0"
     inkscape:deskcolor="#d1d1d1">
    <inkscape:page
       x="0"
       y="0"
       width="1200"
       height="1200"
       id="page2"
       margin="0"
       bleed="0" />
  </sodipodi:namedview>
  <g
     inkscape:groupmode="layer"
     inkscape:label="Image"
     id="g1">
    <path
       style="fill:#000000"
       d="m 718.5,772.59542 c -3.85,-0.74599 -9.5875,-2.11707 -12.75,-3.04684 l -5.75,-1.6905 v -10.03603 c 0,-7.65574 0.29647,-9.90547 1.25,-9.48556 22.26983,9.8071 37.4777,11.0122 43.10273,3.41552 C 748.89037,745.62385 744.04895,741.12371 729,737.48154 705.64589,731.82933 699.49358,726.19817 699.52141,710.5 699.56189,687.67173 719.50613,678.608 754,685.74203 l 8.5,1.75797 0.28621,9.75 c 0.15742,5.3625 -0.0131,9.75 -0.37901,9.75 -0.36588,0 -3.86967,-1.17869 -7.78621,-2.6193 -18.71755,-6.88486 -37.9816,-2.85055 -33.48747,7.01299 1.4407,3.16201 4.23355,4.31809 17.35083,7.18228 23.19636,5.06498 30.09898,11.76402 29.28777,28.42403 -1.0509,21.58268 -19.77729,31.31049 -49.27212,25.59542 z M 397.41894,765.75 c 1.28113,-3.4375 8.52864,-23.0125 16.10559,-43.5 L 427.3008,685 h 13.75177 13.75178 l 0.99079,2.75 c 1.61483,4.48204 29.9538,80.5934 30.71769,82.5 0.64446,1.60852 -0.27103,1.75 -11.32372,1.75 h -12.02487 l -2.66424,-8 -2.66424,-8 h -16.7448 -16.7448 l -2.78488,8 -2.78489,8 H 406.93301 395.08963 Z M 446.73731,724 c -6.27442,-18.12007 -5.17155,-18.12071 -11.33597,0.007 L 430.30268,739 h 10.81434 10.81433 z M 497,728.5 V 685 h 14.78292 14.78291 l 9.52974,22.55285 9.52974,22.55286 9.53387,-22.30286 L 564.69306,685.5 579.34653,685.22327 594,684.94653 V 728.47327 772 h -10.98512 -10.98512 l -0.26488,-29.55357 -0.26488,-29.55356 -9.09028,21.30356 -9.09029,21.30357 -7.48661,0.28895 -7.48661,0.28895 L 528.9231,733.97683 519.5,711.87576 519.23534,741.93788 518.97067,772 H 507.98534 497 Z m 118,-0.0769 v -43.57694 l 24.75,0.36222 c 33.54016,0.49087 41.28037,3.76868 45.82641,19.4065 C 692.2133,727.44494 678.29177,742 649.8185,742 H 638 v 15 15 H 626.5 615 Z m 42.03273,-4.93999 C 670.15854,716.69546 662.33722,702 645.59887,702 H 638 v 11.5 11.5 h 8.04966 c 5.23932,0 9.07379,-0.5296 10.98307,-1.51693 z M 106,603 V 477 H 63 20 v -25 -25 h 456 456 v 25 25 H 552.5 173 V 603 729 H 139.5 106 Z M 967,577.95503 V 426.91006 l 68.75,0.32045 68.75,0.32045 10,2.72457 c 43.7761,11.92707 65.0534,38.52986 64.9647,81.22447 -0.1225,58.89216 -35.0976,84.42651 -115.7147,84.48019 L 1034,596 V 662.5 729 H 1000.5 967 Z m 120.3265,-32.89535 c 34.7592,-11.9589 31.0946,-61.24323 -5.1257,-68.93442 C 1079.215,475.49125 1067.537,475 1055.4508,475 H 1034 v 36 36 h 23.8434 c 20.9947,0 24.5173,-0.23183 29.4831,-1.94032 z M 251.5,655.50066 C 230.63425,650.83947 219.29806,640.85905 212.88059,621.5 c -2.28841,-6.90326 -2.32513,-7.7221 -2.65749,-59.25 L 209.88609,510 H 228.94304 248 v 47.7899 c 0,66.54047 2.12966,72.40842 25.77035,71.00626 21.28789,-1.26262 22.45264,-4.81242 22.98336,-70.04616 L 297.15033,510 H 316.07516 335 l -0.0173,43.75 c -0.0262,66.05885 -1.92819,75.89934 -17.4157,90.10349 -12.34393,11.32106 -43.18658,16.75842 -66.06697,11.64717 z m 582.92327,0.0191 C 765.3768,639.732 760.81117,531.94124 828.30738,511.12869 c 63.58389,-19.60618 115.54642,30.24927 98.84341,94.83531 -9.89057,38.24416 -49.53611,59.43168 -92.72752,49.55578 z m 32.79697,-28.14296 c 30.23336,-9.72149 31.34708,-76.41377 1.49352,-89.43597 -26.0381,-11.35788 -48.05316,8.81123 -48.0916,44.05915 -0.0391,35.8374 18.9023,54.28236 46.59808,45.37682 z M 370,582.5061 v -72.68731 l 38.25,0.42455 c 41.12358,0.45646 46.66289,1.10044 57.64127,6.70119 21.59789,11.01842 23.68176,45.64966 3.49751,58.12421 l -3.41795,2.11241 4.94992,2.46665 c 19.92507,9.92908 24.61829,44.29352 8.3128,60.86756 -11.66731,11.85947 -20.32095,13.6165 -69.98355,14.20943 L 370,655.19341 Z m 73.36808,42.58936 c 9.34152,-5.80702 10.28219,-21.16328 1.73684,-28.35372 -4.58361,-3.85686 -8.98093,-4.7299 -23.85492,-4.73616 L 408,592 v 18.08786 18.08786 l 15.75,-0.33786 c 14.5789,-0.31274 16.03761,-0.51665 19.61808,-2.7424 z m -5.26449,-61.70192 c 17.01403,-9.82636 6.65644,-26.55216 -16.85359,-27.21577 l -13.25,-0.374 v 15.22857 15.22856 l 13.35359,-0.45289 c 10.88516,-0.36917 13.98142,-0.81549 16.75,-2.41447 z M 520,582.5 V 510 H 570.5 621 V 524.5 539 H 589.5 558 v 13 13 H 587.5 617 V 579.5 594 H 587.5 558 v 16 16 H 590.5 623 V 640.5 655 H 571.5 520 Z M 685,597 V 539 H 661.5 638 V 524.5 510 h 66.5 66.5 v 14.5 14.5 h -24 -24 v 58 58 h -19 -19 z"
       id="path1" />
  </g>
</svg>
