<?xml version="1.0" encoding="UTF-8" standalone="no"?>
<!-- Created with Inkscape (http://www.inkscape.org/) -->

<svg
   version="1.1"
   id="svg1"
   width="1159.465"
   height="347.29514"
   viewBox="0 0 1159.465 347.29514"
   xmlns="http://www.w3.org/2000/svg"
   xmlns:svg="http://www.w3.org/2000/svg">
  <defs
     id="defs1" />
  <g
     id="g1"
     transform="translate(-18.375689,-26.298344)">
    <path
       style="fill:#000000"
       d="m 716.87569,371.9837 c -3.85,-0.74599 -9.5875,-2.11707 -12.75,-3.04684 l -5.75,-1.6905 v -10.03603 c 0,-7.65574 0.29647,-9.90547 1.25,-9.48556 22.26983,9.8071 37.4777,11.0122 43.10273,3.41552 4.53764,-6.12816 -0.30378,-10.6283 -15.35273,-14.27047 -23.35411,-5.65221 -29.50642,-11.28337 -29.47859,-26.98154 0.0405,-22.82827 19.98472,-31.892 54.47859,-24.75797 l 8.5,1.75797 0.28621,9.75 c 0.15742,5.3625 -0.0131,9.75 -0.37901,9.75 -0.36588,0 -3.86967,-1.17869 -7.78621,-2.6193 -18.71755,-6.88486 -37.9816,-2.85055 -33.48747,7.01299 1.4407,3.16201 4.23355,4.31809 17.35083,7.18228 23.19636,5.06498 30.09898,11.76402 29.28777,28.42403 -1.0509,21.58268 -19.77729,31.31049 -49.27212,25.59542 z m -321.08106,-6.84542 c 1.28113,-3.4375 8.52864,-23.0125 16.10559,-43.5 l 13.77627,-37.25 h 13.75177 13.75178 l 0.99079,2.75 c 1.61483,4.48204 29.9538,80.5934 30.71769,82.5 0.64446,1.60852 -0.27103,1.75 -11.32372,1.75 h -12.02487 l -2.66424,-8 -2.66424,-8 h -16.7448 -16.7448 l -2.78488,8 -2.78489,8 H 405.3087 393.46532 Z m 49.31837,-41.75 c -6.27442,-18.12007 -5.17155,-18.12071 -11.33597,0.007 l -5.09866,14.993 h 10.81434 10.81433 z m 50.26269,4.5 v -43.5 h 14.78292 14.78291 l 9.52974,22.55285 9.52974,22.55286 9.53387,-22.30286 9.53388,-22.30285 14.65347,-0.27673 14.65347,-0.27674 v 43.52674 43.52673 h -10.98512 -10.98512 l -0.26488,-29.55357 -0.26488,-29.55356 -9.09028,21.30356 -9.09029,21.30357 -7.48661,0.28895 -7.48661,0.28895 -9.42311,-22.10107 -9.4231,-22.10107 -0.26466,30.06212 -0.26467,30.06212 h -10.98533 -10.98534 z m 118,-0.0769 v -43.57694 l 24.75,0.36222 c 33.54016,0.49087 41.28037,3.76868 45.82641,19.4065 6.63689,22.83006 -7.28464,37.38512 -35.75791,37.38512 h -11.8185 v 15 15 h -11.5 -11.5 z m 42.03273,-4.93999 c 13.12581,-6.78765 5.30449,-21.48311 -11.43386,-21.48311 h -7.59887 v 11.5 11.5 h 8.04966 c 5.23932,0 9.07379,-0.5296 10.98307,-1.51693 z M 104.37569,202.38828 V 76.388283 h -42.999999 -43 v -25 -25 h 455.999999 456 v 25 25 h -379.5 -379.5 v 125.999997 126 h -33.5 -33.5 z m 861,-25.04497 V 26.298343 l 68.75001,0.32045 68.75,0.32045 10,2.72457 c 43.7761,11.92707 65.0534,38.52986 64.9647,81.224467 -0.1225,58.89216 -35.0976,84.42651 -115.7147,84.48019 l -29.75,0.0198 v 66.5 66.5 h -33.50001 -33.5 z m 120.32651,-32.89535 c 34.7592,-11.9589 31.0946,-61.243227 -5.1257,-68.934417 -2.9858,-0.63401 -14.6638,-1.12526 -26.75,-1.12526 h -21.4508 v 35.999997 36 h 23.8434 c 20.9947,0 24.5173,-0.23183 29.4831,-1.94032 z M 249.87569,254.88894 c -20.86575,-4.66119 -32.20194,-14.64161 -38.61941,-34.00066 -2.28841,-6.90326 -2.32513,-7.7221 -2.65749,-59.25 l -0.33701,-52.25 h 19.05695 19.05696 v 47.7899 c 0,66.54047 2.12966,72.40842 25.77035,71.00626 21.28789,-1.26262 22.45264,-4.81242 22.98336,-70.04616 l 0.39662,-48.75 h 18.92483 18.92484 l -0.0173,43.75 c -0.0262,66.05885 -1.92819,75.89934 -17.4157,90.10349 -12.34393,11.32106 -43.18658,16.75842 -66.06697,11.64717 z m 582.92327,0.0191 c -69.04647,-15.78776 -73.6121,-123.57852 -6.11589,-144.39107 63.58389,-19.606177 115.54642,30.24927 98.84341,94.83531 -9.89057,38.24416 -49.53611,59.43168 -92.72752,49.55578 z m 32.79697,-28.14296 c 30.23336,-9.72149 31.34708,-76.41377 1.49352,-89.43597 -26.0381,-11.35788 -48.05316,8.81123 -48.0916,44.05915 -0.0391,35.8374 18.9023,54.28236 46.59808,45.37682 z m -497.22024,-44.8707 v -72.68731 l 38.25,0.42455 c 41.12358,0.45646 46.66289,1.10044 57.64127,6.70119 21.59789,11.01842 23.68176,45.64966 3.49751,58.12421 l -3.41795,2.11241 4.94992,2.46665 c 19.92507,9.92908 24.61829,44.29352 8.3128,60.86756 -11.66731,11.85947 -20.32095,13.6165 -69.98355,14.20943 l -39.25,0.46862 z m 73.36808,42.58936 c 9.34152,-5.80702 10.28219,-21.16328 1.73684,-28.35372 -4.58361,-3.85686 -8.98093,-4.7299 -23.85492,-4.73616 l -13.25,-0.006 v 18.08786 18.08786 l 15.75,-0.33786 c 14.5789,-0.31274 16.03761,-0.51665 19.61808,-2.7424 z m -5.26449,-61.70192 c 17.01403,-9.82636 6.65644,-26.55216 -16.85359,-27.21577 l -13.25,-0.374 v 15.22857 15.22856 l 13.35359,-0.45289 c 10.88516,-0.36917 13.98142,-0.81549 16.75,-2.41447 z m 81.89641,19.10646 v -72.5 h 50.5 50.5 v 14.5 14.5 h -31.5 -31.5 v 13 13 h 29.5 29.5 v 14.5 14.5 h -29.5 -29.5 v 16 16 h 32.5 32.5 v 14.5 14.5 h -51.5 -51.5 z m 165,14.5 v -58 h -23.5 -23.5 v -14.5 -14.5 h 66.5 66.5 v 14.5 14.5 h -24 -24 v 58 58 h -19 -19 z"
       id="path1" />
  </g>
</svg>
